<svg width="96" height="96" viewBox="0 0 96 96" fill="none" xmlns="http://www.w3.org/2000/svg">
  <rect width="96" height="96" rx="24" fill="url(#bg)" />

  <circle cx="48" cy="48" r="30" fill="white" opacity="0.92"/>
  <path d="M18 48C18 31.43 31.43 18 48 18C64.57 18 78 31.43 78 48H18Z" fill="#EF4444"/>
  <path d="M18 48H78" stroke="#1F2937" stroke-width="6" stroke-linecap="round"/>
  <circle cx="48" cy="48" r="10" fill="white" stroke="#1F2937" stroke-width="5"/>
  <circle cx="48" cy="48" r="3.5" fill="#CBD5E1"/>

  <path d="M24 24L27 18L30 24L36 27L30 30L27 36L24 30L18 27L24 24Z" fill="#FACC15" opacity="0.9"/>
  <path d="M70 68L72 64L74 68L78 70L74 72L72 76L70 72L66 70L70 68Z" fill="#93C5FD" opacity="0.9"/>

  <defs>
    <linearGradient id="bg" x1="12" y1="8" x2="84" y2="88" gradientUnits="userSpaceOnUse">
      <stop stop-color="#EEF2FF"/>
      <stop offset="1" stop-color="#DBEAFE"/>
    </linearGradient>
  </defs>
</svg>